<svg xmlns="http://www.w3.org/2000/svg" viewBox="0 0 1019.35 1043.49"><defs><style>.cls-1{fill:#69ae77;}.cls-2{fill:#35966c;}.cls-3{fill:#4ea171;}.cls-4{fill:#52a172;}.cls-5{fill:#499f70;}.cls-6{fill:#52a272;}.cls-7{fill:#55a472;}.cls-8{fill:#c3dec5;}.cls-9{fill:#b7d4bd;}.cls-10{fill:#bfd6c1;}.cls-11{fill:#a0c9b2;}</style></defs><g id="Layer_2" data-name="Layer 2"><g id="Layer_1-2" data-name="Layer 1"><path class="cls-1" d="M759.12,580.19c2.55-4.86,7.29-7.61,11.16-11.09C783.77,557,795.73,543.4,807.92,530c10.18-11.14,19.52-23,24.93-37.3,8.66-23,7.78-45.59-2.45-68a91.08,91.08,0,0,0-9.21-16.5c-6.68-9.05-15.1-16.22-24.4-22.59a75.35,75.35,0,0,0-29.35-12.08,102.47,102.47,0,0,0-31.67-.78c-5.7.74-11.53.12-17.27.95-14,2-28,4.13-41.74,7.37a383.84,383.84,0,0,0-47.49,14.58c-12.35,4.66-24.25,10.25-36.2,15.73-6.88,3.14-13.12,7.66-19.77,11.32-9.36,5.14-18.07,11.3-27,17.14-4.42,2.9-8.61,6.14-12.79,9.37-7.59,5.85-15.09,11.81-22.63,17.72-1.44-1-2.27-2.54-3.48-3.76a3,3,0,0,1-.12-4.25c1.11-1.46,3-2,4.13-.81,3.31,3.29,5.56.71,8-1,2.06-1.42,3.48-3.46,5.1-5.36-2.73,1.11-4.82,3.13-7.07,4.89s-3.91,1.95-6.23.07c-3-2.43-5.89-5.1-9.63-6.51-1.73-.65-2.35-2.37-3.15-3.91-1.36-2.64-3-2.6-4.41-.08a13.68,13.68,0,0,1-4.55,4.59c-1.72,1.2-3.56,2.67-5.18.19a4.53,4.53,0,0,1,.76-6.33,11.87,11.87,0,0,1,2-1.18c1.85-1.07,1.55-2.07-.1-3a10.37,10.37,0,0,0-5.37-1.43c-2.56,0-4.82-.93-7.2-1.75-4.55-1.57-8.44-3.59-10.46-8.37-.88-2.1-2.4-3.17-5.21-1.85-3.82,1.79-7.68.25-11.21-1.54A68.82,68.82,0,0,0,432.22,420a15.39,15.39,0,0,0-5.51-.55c-3.19.37-5.09-1.76-5-5.15a5.13,5.13,0,0,1,5.12-5.49c1.54-.09,3.49,1.81,4.58-.5.79-1.65-.05-3.41-.77-4.95-1.34-2.91-.59-5.31,1.85-7,3.25-2.24,5.8-5.81,10.36-5.74.95,0,1.91-.31,2-1.49a1.58,1.58,0,0,0-.78-1.59c-1.16-.61-1.54.63-2.29,1.05-3.14,1.73-5.24,4.73-8.52,6.43-2.92,1.52-5.81,3.88-3.78,8.23.72,1.53.89,3.45-.88,4.65s-3.22.28-4.37-1.22c-.29-.38-1-.87-1.09-.65-1.56,2.91-5.95,2.41-7,6.24-1.35,5.16-6,6.88-11.36,4.73-.2-2.2,1.41-3.41,2.73-4.65,11.72-11,23.47-21.92,36-32,9.6-7.72,19.24-15.38,29-22.86,8.43-6.45,17.33-12.2,26.29-17.87,4.22-2.67,8.23-5.65,12.49-8.26a467.06,467.06,0,0,1,57.6-30,473.3,473.3,0,0,1,60.64-21.89c25.07-7.08,50.58-12.25,76.6-14.39,15.85-1.31,31.66-3,47.55-4,15.27-1,25.47-6.62,29.86-22.57,4.48-16.26,3-27.46-9.77-38.26-10.51-8.86-21.94-16.47-33.39-24-9.49-6.28-19.23-12.2-29.29-17.52-7-3.71-14.2-7.13-21.4-10.48C681,144.1,672,140.54,663,137a333.53,333.53,0,0,0-47.78-14.73c-13.21-3-26.47-5.65-39.76-8.23-2.46-1.31-5.17-.94-7.78-1.21C553.81,111.42,540,110.1,526,110c-18.38-.11-36.57,1.92-54.84,3-1.72.1-3.32.82-5,1.06-11.6,1.48-22.89,4.63-34.46,6.43-7.94,1.24-15.71,4-23.49,6.25-7.6,2.24-15.06,4.92-22.71,7-4.54,1.21-8.75,3.36-13,5.17-8.86,3.75-17.81,7.35-26.46,11.66-9.92,4.94-19.72,10-29.28,15.62-13.88,8.1-27.46,16.58-40,26.73-5.43,4.39-10.91,8.81-16.66,12.84-6.79,4.77-12.69,10.63-18.66,16.34-8.68,8.3-17.57,16.5-25.3,25.68-11.83,14.08-23.88,28-34.06,43.44-2,3-3.2,7.21-7.79,7.76-.18-4.53-3.92-5.57-7.09-6.81-4-1.56-7.92-2.86-10.18-6.9-.84-1.49-2.52-1.76-4.13-1.78-2.51,0-4.94-.69-7.42-.85-3.45-.24-5.52-1.82-7.33-4.85-3.28-5.5-9.15-7.42-15-8.22s-11.33-3.23-17.18-4.12A5.85,5.85,0,0,1,101,261c-.65-2.45-2.13-3.24-4.58-2.47-1.74.55-3.43.44-4.58-1.28A4.37,4.37,0,0,1,92,252c2.13-3.12,3.92-6.37,4.41-10.2A4.73,4.73,0,0,1,98,238.94c1.18-1.13,3.38-2.13,2-4.08a6.2,6.2,0,0,0-5.85-2.26c-3.07.4-5.86,4.59-5.33,7.7.77,4.58-2.57,11.57-6.79,13.37-3.94,1.67-6,4.29-7.14,8.49-1.42,5.4-5.28,9.16-10.32,11.62,2.31-7.14,6.76-13.15,10.55-19.48a517.74,517.74,0,0,1,41.38-58.9c3.9-4.84,7.94-9.55,11.92-14.33,5.71-4.88,9.94-11.16,15.35-16.31,8.1-7.73,15.16-16.5,24.1-23.4,3-2.34,5.44-5.51,8.4-8a382.25,382.25,0,0,1,30.47-25.07c10.18-7.47,20.28-15.06,31-21.89,14.22-9.09,28.68-17.67,43.58-25.65,10.34-5.54,20.88-10.63,31.48-15.55,8.81-4.09,17.93-7.6,27.05-11.06,11.17-4.23,22.5-8,33.87-11.54C384.23,19.27,395,16.35,406,14.08c8.94-1.86,18-3.16,26.83-5.57s18.34-2.87,27.6-3.57c1.56-.12,3.14,0,4.49-1,6.17-2,12.63-1.15,18.92-1.68A390.23,390.23,0,0,1,541.63,1.2c10.37.66,20.87.61,31.07,2.42,9.76,1.74,19.73,1.24,29.39,3.87,12.21,3.32,25,4,37.16,7.66,13.55,3.8,27.21,7.25,40.61,11.52,11,3.52,21.89,7.76,32.62,12.17,11.38,4.68,22.73,9.53,33.74,15,14.64,7.3,29.28,14.77,42.91,23.82,8.48,5.62,17.15,11,25.45,16.94,11.15,8,22.39,16,33,24.71a556.52,556.52,0,0,1,52.85,49.94c6.39,6.83,12.45,13.94,18.18,21.22a357.54,357.54,0,0,1,47.69,81.38,348,348,0,0,1,21.2,73.3c1,5.51,1.53,11.09,2.16,16.65a308.38,308.38,0,0,1,1.18,60.67,328.19,328.19,0,0,1-10.74,59.56,275.78,275.78,0,0,1-15.85,43.3c-8.4,18-17.84,35.49-29.47,51.76a359.77,359.77,0,0,1-32.16,39.29,14.66,14.66,0,0,1-1.8,1.4c-2.29-2-1.09-3.64.78-4.89,3.17-2.14,5.39-5.19,7.86-8,1.2-1.34,2.62-2.74,1.95-5.23-2.74,2.44-3.61,9.11-8.8,5.3-5.58-4.1-6.8-5.79-3-11.89A36,36,0,0,1,887.44,590c-1.24-.54-3.16-1.26-3.56.59-.36,1.62,1.66,1.38,2.81,1.58,6.81,1.17,7.36,2.64,6.43,9.34-.78,5.57-2.74,10.06-6.76,13.93-2.81,2.69-6,2.44-9.18,1.67-2.35-.57-2.89-2.3-.86-4.14,2.95-2.66,2.82-6.08,2.38-9.55-.26-2.12-1.25-2.62-3.17-1.35a38.33,38.33,0,0,0-6.32,5.54,8.78,8.78,0,0,1-9.91,2.18c-3.35-1.22-3.78-3.34-1.42-6,.41-.46.94-.83,1.33-1.31,1.28-1.59,3-3.3,2-5.4-1-2.31-3.31-.65-5-.79-6.32-.5-12.77-2-17.29-6.14s-9.86-6.46-15.26-8.73c-3-1.24-5.67-2.62-7.67-5.13a12.1,12.1,0,0,0-7.52-4.45c-4.9-.83-9.55-3-14.68-2.57a6.36,6.36,0,0,1-4.1-.78c-6.56-4.47-11.89-.5-17,2.75a34.45,34.45,0,0,0-7.61,6.9C763.57,579.82,761.9,581.85,759.12,580.19Z"/><path class="cls-2" d="M669.3,1021.91c-3.26,3.45-7.92,2.2-11.82,3.49a202.24,202.24,0,0,1-26.22,6.56c-15.26,2.9-30.48,5.79-45.91,7.9-28.16,3.85-56.34,3.5-84.59,3.63-16.15.07-32-3-48-4-13-.78-25.36-4.57-38.19-6.07-9.5-1.12-18.79-4.26-28.08-6.81-10.1-2.78-20.14-5.79-30.12-9A420.25,420.25,0,0,1,315,1001.84c-13.14-5.76-26-12-38.75-18.59-23.57-12.12-45.62-26.57-66.82-42.38a498.82,498.82,0,0,1-53.86-46.37c-11.48-11.43-22.67-23.08-33.07-35.45-9.58-11.39-18.53-23.28-27.22-35.39-9.23-12.88-17.7-26.22-25.61-39.85a464.68,464.68,0,0,1-25-49.47c-6.36-14.81-12.11-29.82-17.46-45a381.65,381.65,0,0,1-13.14-47.15c-1.32-6.22-3.37-12.29-3.91-18.67a3.69,3.69,0,0,1-.19-2.93c3.57-.56,7.13,2.74,9,5.85,4.19,6.78,3.69,14.52,5.53,21.76,1,4,3.29,6.09,7.09,7.87,7.55,3.53,15.35,3.75,23.34,3.54,5.15-.13,9.82.44,11,6.82.33,1.81,1.84,2.42,3.53,2.49,2.35.1,4.72,1.09,7,.77,10-1.41,15.45,5.24,20.87,11.67a26.84,26.84,0,0,0,10.81,7.72c4.35,1.79,9.13,2.3,13.12,4,5.18,2.25,9.9,5.23,15.76,5.33a1.64,1.64,0,0,1,1.17.74c4.58,7.36,12.47,7,19.59,8.3a9.61,9.61,0,0,1,5.4,2.53,79.34,79.34,0,0,0,6.8,5.74c2.58,2.08,5.29,3.06,8.67,1.73a7,7,0,0,1,8.18,1.7,6.47,6.47,0,0,0,4,2.18c3.5.31,5.84,1.88,6.61,5.5a3.17,3.17,0,0,0,2.5,2.56,19.64,19.64,0,0,1,8.39,3.89c1.68,1.21,3.6.95,3.78-1.46a8.64,8.64,0,0,1,5.59-7.9,5.38,5.38,0,0,0,1.93-2c.76-1.09,1.26-2.91,3.08-2.12,1.46.64,1.44,2.3,1.51,3.7.16,3.45.2,6.88-1.47,10.07a6.69,6.69,0,0,0-.88,2.66c-.1,2-.59,4.58,1.67,5.3,2.06.66,4.18-.93,6-2.05,1.15-.7.06-1.58-.34-2.36-3.09-6.09-2.53-11.25,1.85-16.3a14.3,14.3,0,0,0,2.17-4.1c1.53-3.67,5.72-5.07,8.25-2.24,2.92,3.28,6.8,4.88,10.14,7.39s3.48,3.1.11,5.93a11.3,11.3,0,0,0-2.45,3.39c-13.77,14.93-17.4,32.26-11,51.3,3.49,10.4,11,18.26,19.71,24.76q10.8,8.06,21.94,15.62c6.87,4.68,13.66,9.46,20.88,13.67,5.7,3.32,11.27,7,17,10.4a478.75,478.75,0,0,0,43.7,22.6c5.17,2.38,10.39,4.75,15.65,6.83,10.72,4.25,21.35,8.72,32.36,12.33,7.78,2.55,15.55,5.43,23.42,7.6s15.7,5.54,24.12,6.31c3,.27,5.89,1.77,8.83,2.71,4.47,3.09,9.89,2.32,14.81,3.58a153.94,153.94,0,0,0,26.43,4.72c15.64,1.18,31.13,4.16,46.95,3.78,7.36-.17,15,1.23,21.45,5.78,1.72,1.22,3.32.16,4.78-.69,2.65-1.55,5.28-2.73,8.39-1.35,1.3.57,2.62.37,3.23-1,1.51-3.24,4.29-3,7.16-3,9.19-.27,18.38-.53,27.55-1.19,1.65-.11,3.88-.77,4.34,1.47s-1.77,2.68-3.36,3.17a41.28,41.28,0,0,1-10.09,2c-3,.15-5.93.15-8.34,2.34a2.59,2.59,0,0,1-3.08.4c-6.08-3.58-10.67,2.37-16.17,2.52a1.35,1.35,0,0,0-1,1.82A1.86,1.86,0,0,0,591,931.1c6.13-.52,11.23,2.6,16.21,5.24,5.39,2.87,11.16,4.81,16.56,7.62,2.89,1.5,6.19,2.63,9.49,2,3.81-.72,6.66.5,9.32,3,3.36,3.18,7.91,4.52,12,6.23,6.71,2.84,13.22,6.33,20.29,8.26,6.45,1.77,11.38,6.32,17.33,9,3.47,1.57,6.4,4.41,9.95,6.1a4.26,4.26,0,0,1,2.54,2.61c.91,3.58,3.11,3.85,6.05,2.63a9.44,9.44,0,0,1,7.73.29c1.43.63,3,1.39,4.48,1.26,5.86-.5,9.23,4,13.52,6.58,2.07,1.24,2.63,3.14-.49,4.36-3.86,1.51-7.35,3.77-11.44,4.92-5.6,1.57-10.56,4.84-16.12,6.74-8.47,2.89-16.87,6-25.24,9.18C678.58,1018.91,673.42,1018.93,669.3,1021.91Z"/><path class="cls-3" d="M249.29,731.25c-.24-1.71.22-3.39,1.77-4,4.09-1.66,2.13-2.62-.05-4.32-3.33-2.6-7.88-3.3-10.2-7.68-1.36-2.56-5.94-.86-6.49,2.26-.29,1.59-.43,3.29-1.85,4.11-5.51,3.2-3.63,8.28-3.46,12.92a2.31,2.31,0,0,0,.8,1.65c6.8,4.19.76,4.67-1.77,5.47-2.13.67-4.86,3.8-6.06,2-1.8-2.71-2.9-6.58-.62-10.1,2.68-4.13,1.42-8.56,1-13.1-1.39,3-3.13,5.15-6.41,5.92-2.54.6-2.39,2.91-2.38,5,0,1.52.33,3.26-1.41,4.15a4.17,4.17,0,0,1-4.77-1c-2.27-2-4.43-3.62-7.76-3.57-2.19,0-3.7-1.88-3.75-4.12-.06-3.16-1.88-4-4.52-4.05-2.14,0-4-.49-5.25-2.41-1.93-2.92-4.76-3-7.43-1.6-3.11,1.63-5.55,1.05-8.15-1-2.93-2.29-6-4.34-8.56-7.13-.6-.67-1.53-1.64-2.2-1.55-5.62.7-10.34-3-15.69-3.15-2.75-.1-4.54-.9-5.26-3.53-1-3.54-3.44-4-6.49-3.35s-5.85.16-7.72-2.84c-.56-.89-1.56-2.07-2.4-2.1a38.37,38.37,0,0,1-14.79-3.9,33.73,33.73,0,0,1-11.16-8c-5-5.33-9-12.86-18.58-11.11-3.3.6-6.69-1.18-10.17-.9-2.16.17-2.93-1.32-3-3.33-.16-4.6-3-5.9-7.13-6-6.36-.18-13,1.4-19-1-5.32-2.14-12.48-2-14.75-9a46.93,46.93,0,0,1-2.21-15.24c0-1.76.11-3.41-2.15-4.05-1.39-.4-1.69-1.78-1.59-3.09.4-5.31-4.18-5.86-7.36-7.75-.78-3.54-2.34-6.9-2.49-10.58,2-3.39,3.43-6.78,0-10.17-1.27-.93-1.36-2.65-2.46-3.7l0,0c-.64-1-.33-2.17-.38-3.26,5-2,.33-3.93,0-5.9-.17-3.25-1.33-6.31-1.78-9.5,1.71-5.92,1.15-11.94.84-17.95,0-.86-.3-1.86-1.49-2.05A193,193,0,0,1,.87,535.53C.29,517.29,2,499.14,3,481c.55-9.8,1.83-19.45,3.13-29.12.47-3.5,1.35-6.95,1.52-10.53.06-1.27.13-3,2.15-3.06,1.64-.06,2.56,1,3.15,2.34.73,1.7.83,3.65,2.05,5.34,1.15-.54.7-1.6.82-2.36.27-1.63.84-3.08,2.46-3.7,2-.76,2.58,1.08,3.71,2.06,2.89,2.53,5.91,4.81,8.41,7.84,1.87,2.27,5.16,2.06,8,1.31,3.09-.84,5,0,6.37,3A8.14,8.14,0,0,0,52.1,459c3.28.16,6.35,1.58,9.68,1.51,2.49-.05,3.91,1.74,5.08,3.65,4.21,6.88,10.2,10.34,18.38,9.51,9.78-1,14,5.87,18.19,15,1.07-7.58.83-15.08,1.07-22.55a19,19,0,0,1,1.2-6.88c.72-1.74,1.45-3.67,3.61-3.89s2.86,1.57,3.75,3a20,20,0,0,1-.56,11.79c-2,5.28-1.49,10.89-1.65,16.4-.06,2,.22,4-.5,6-3.06,2.11-3.39,4.78-1.56,7.88.41,6.53.24,13.07.15,19.6s1.87,12.43,3.32,18.55a5.76,5.76,0,0,1,.72,1.22c.67,4.37,1.4,8.73,4.18,12.4a6,6,0,0,1,.63,1.14c.76,2.93,2.75,5.15,4.44,7.55a17.63,17.63,0,0,1,1.94,2.46c.88,2.63,2.88,4.4,4.81,6.23,2.43,2.39,4.18,5.39,6.71,7.7,4.8,5.67,11.17,9.31,17.49,12.78,3.63,2,7,4.6,11.11,5.77,2,2.46,4.87,1.86,7.45,2.35,2.95,1.18,5.84,2.39,9.21,1.68a5.29,5.29,0,0,1,4.65,1.4A4.23,4.23,0,0,0,189,602.4c6.58-.46,13.25,1.2,19.73-.95a5,5,0,0,1,3.72-1.58c7.59.15,13.76-4.2,20.59-6.46a10.74,10.74,0,0,1,1.09-.78c10.76-4.71,19.27-12.35,27.16-20.8a15,15,0,0,0,3.09-4.08c8.91-10.21,18-20.29,26.85-30.54,14.68-17,29.91-33.46,44.87-50.19,4.43-4.95,8.14-10.73,13.93-14.4a23.06,23.06,0,0,0,6.89-6.18c5.85-7.33,13.1-13.34,18.85-20.72a6.72,6.72,0,0,1,.86-.91,12.61,12.61,0,0,0,4.39-4.14,2.25,2.25,0,0,1,1.12-.56c1.46,0,4,2,3.29-1.87-.32-1.77.95-2.78,2-4,3.69-4.16,8.11-7.58,11.82-11.72a4.76,4.76,0,0,1,.72-1c1.54-1.24,3.31-2.23,4.36-4l.48-.35c2.45-.34,4.91-.64,7.35-1.05.57-.1,1.52-.53,1.56-.87.46-4.94,4.61-6.78,7.51-9.85,2-2.15,2.34-3.25,3.63.1.49,1.28,1.09,2.84,3,1.94,1.56-.74.7-2,.68-3.21,0-2.39-3.13-4.94.65-7.3,2.13-1.33,5-3,6-4.44,1.83-2.52,5.25-2.64,6.43-5.51.39-.94.74-2.95,2.45-1.92s2.33,3,2.62,4.8c.25,1.53-1.22,2-2.56,2-2.44.12-4.72-.12-7,1.8-4.13,3.51-8.13,6.18-4.45,12.82,1.93,3.48-.25,5-4.41,3.65-1.85-.61-3.43-.55-4.62,1a5.24,5.24,0,0,0-.24,6.13c.94,1.65,2.27,1.23,4,1,3.87-.63,7.55.95,11.12,2.25,4.21,1.53,8.23,3.57,12.42,5.13,3.2,1.2,6.56,2.29,9.39-1,.87-1,2-1.1,2.5.37.6,1.94,2.61,2.81,3.28,4.46,2.88,7.07,9.66,6.74,15.4,8.32,1.45.4,3.11,0,4.54.82s4.07,1.26,4.31,3.23c.27,2.25-2.25,2.68-3.88,3.35-3,1.24-2.36,3.67-1.37,5.4,1.31,2.29,2.27,0,3.5-.74,2.13-1.34,4.29-2.26,4.66-5.28.18-1.44,1.9-2.05,3.38-1.82s2.68.84,2.88,2.58c.34,2.89,2.25,3.85,4.83,4.89a20.82,20.82,0,0,1,7.6,5.52c2,2.33,3.14,1.63,4.87,0,2-1.9,4.25-3.64,6.46-5.35,1.22-1,2.56-1.24,3.6.36,1.32,2-.9,1.64-1.55,2.4a50.66,50.66,0,0,1-8.74,7.54c-1.76,1.3-3.09,2.26-4.4-.35-.92-1.82-2.31-2.78-4-1s-.88,3,1.07,4c1.51.74,1.53,2.23,1.63,3.64v0c-2.2,1.36-4.41,2.91-6.14-.32-.85,4.39-2.22,8.1-6.74,10.79-4.17,2.48-7.13,6.81-10.89,10.1-4.65,4.07-8.9,8.64-13.5,12.82a14.07,14.07,0,0,0-3.05,4.12v0a40.24,40.24,0,0,0-9.47,9.22q-2.36,2.37-4.7,4.76c-8.29,7.69-15.67,16.23-23.35,24.5l0,0a16.58,16.58,0,0,0-6.68,8.18l-1.16,1.06c-3.31,1-4.21,4.34-6.34,6.49-2.32,2.43-4.92,4.62-6.63,7.6a199.4,199.4,0,0,0-16.75,18.82c-37.27,42.94-74.93,85.5-118.16,122.71a4.37,4.37,0,0,0-3.28-1.56c1.07,1.11,2.57.47,3.29,1.56-3.69,3.2-6.93,6.94-11.2,9.44-.85-.64-1.22-1.82-2.42-2.14.51,1.12,1.84,1.21,2.44,2.12l-5.6,4.75-.59-.6a5.76,5.76,0,0,1,.62.59Z"/><path class="cls-4" d="M759.12,580.19c5.71-.53,7.7-5.94,11.27-9.09,4.39-3.88,9.91-4.09,14.61-6.6a1.82,1.82,0,0,1,1.72.35c2.83,4.12,7.27,2.48,11,3.42,7.11,1.76,15,1.46,20.36,8.34,3.42,4.42,9.73,4.5,14.36,7.32,1,.64,2.8.66,3.33,1.53,3.16,5.12,8.47,6.24,13.55,8.16,3.2,1.2,6,1.93,9.42,1,3.75-1,5.34,1.11,3.86,4.73-.82,2-1.71,4-3.75,5.22-3.56,2.09-1.54,3.42.78,4.31,3,1.13,6.21.88,8.18-1.54,2.9-3.57,6.84-5.69,10.09-8.75,3.83,6.49,3,13-2,16.41,3.17,2.19,7,1.35,9.87-.65,5.95-4.12,5.11-10.93,7.11-16.54.75-2.09-1.91-4-4.51-4.32-1.23-.15-2.52.11-3.73-.12-1.41-.27-3.53-.23-3.07-2.53.39-2,1.79-3.66,4-2.82,5,1.84,9.67,4.13,15.24,3.72,2-.15,1.58,1.5.31,2.36-1.92,1.31-3.64,2.74-2.51,5.28a10.94,10.94,0,0,0,5.73,5.67c2.56.89,3.9-2.39,4.72-4.75.47-1.34-.19-3.66,2.42-2.69,2.13.79,2.6,2.49,1.31,4.53-2.75,4.35-5.85,8.48-10.17,11.3-1.94,1.27-2.7,2.31-1.89,4.4h0a18.91,18.91,0,0,0-6.47,5.15c-4.06,4.63-8.91,8.52-13.45,12.68-4,3.67-8,7.44-12.2,11-9.32,7.9-19.56,14.57-29.64,21.46-1,.7-2,1.51-2.95,2.28l-2.61,1.91c-3.37,2.35-8,2.64-10.43,6.55h0c-4,.92-7.1,3.4-10.41,5.56h0c-4.21.75-7.58,3.5-11,5.56-5.27,3.14-11.31,4.71-16.18,8.5l-.31.17-.34-.06c-3.68,1.18-7.44,2.19-10.56,4.65l0,0a38.16,38.16,0,0,0-10.38,4.66l-.32.15-.35-.07a49.13,49.13,0,0,0-12.46,4.65c-1.24,1.51-3.39.59-4.75,1.77-2.69,1.24-5.66,1.66-8.34,2.91l0,0c-5.12,1.06-9.82,3.6-14.78,4.78-5.51,1.3-10.85,3-16.23,4.64-14.71,4.6-29.8,7.41-44.88,10.49-18.62,3.8-37.56,5.28-56.23,8.66-8.59,1.55-17.42.37-26.15,1.27-19,2-38,1.9-57.07,1.83-20.13-.08-40.2-1.59-60.29-2.65-4.6-.24-12-7.79-13.1-13.23-2.8-13.72,5.51-24,20.62-24.07,12.58-.11,24.71-2.75,37-4.41,9.89-1.33,19.48-3.87,29.24-5.62,9.36-1.67,18.37-5.26,27.61-7.7A286,286,0,0,0,596.43,680c9.61-3.82,19.24-7.73,28.63-12.23,7.9-3.79,15.72-7.82,23.75-11.4,6.58-2.93,12.74-6.86,19-10.56,9.28-5.51,18.46-11.22,27.67-16.84,2.95-.88,4.92-3.31,7.5-4.77l0,0c8.78-5.82,17.77-11.35,25.34-18.8l0,0c3.23-.44,4.72-3.35,7-5.07,4.68-3.49,9.46-6.88,13.57-11.08l2.67-2.64c3.09-1.56,5.19-4.28,7.7-6.53Z"/><path class="cls-5" d="M669.3,1021.91a5.84,5.84,0,0,1,5.8-3c4,.3,6.56-3.77,10.53-3.68,6.47.14,11.53-4.1,17.25-6.11,5.22-1.82,11.81-1.92,15.62-7.29.4-.56,1.7-.61,2.59-.66,5.68-.33,10-4,15.16-5.83,2-.71.61-1.73-.33-2.56-5.89-5.22-13.63-5.92-20.63-8.39-1.41-.5-3,.09-4.46.83-4.35,2.17-5.74,1.46-6.94-3.12-.26-1-.58-1.91-1.52-2.19-4.45-1.29-7.49-5.35-11.43-6.73-6.74-2.36-12.13-7-19-9.36s-14.27-4.8-20.82-8.87c-4.25-2.65-9.33-4-12.9-7.88-.37-.42-1.56-.39-2.25-.17-6,1.93-10.91-.91-16-3.22-8.43-3.84-16.85-7.71-25.29-11.51-.65-.29-1.83-.46-2.23-.1-4.2,3.81-4.19-1.21-5.72-2.74-1.07-1.06-.67-1.94.88-2.21,2.73-.46,5.09-2.44,8.09-1.91a3.05,3.05,0,0,0,2.94-1.14c2.41-3.07,4.71-3.07,7.15,0,1,1.19,2.35,1.34,3.05-.13,1.32-2.77,3.66-2.46,6-2.45a42.5,42.5,0,0,0,16.54-3.52c-3.54-2-6,0-8.43-.12-7.8-.29-15.62.07-23.43-.16-3.37-.1-5.75.57-6.82,4-.69,2.21-2.19,2.66-3.88,1.17-2.61-2.29-4.9-1.27-7.14.43a16.75,16.75,0,0,1-5.07,2.32c-1,.34-2.27.32-2.39-.63-.59-4.55-4-3.27-6.72-3.57a10,10,0,0,1-4.47-1.18c-4.61-3.22-9.78-2.45-14.84-2.49-10.11-.08-20.26.44-30.09-2.68a2.42,2.42,0,0,0-.93-.09c-12.82,1.12-24.89-3.62-37.4-5-3.23-.36-6.47-1.64-9.89-1.8a4.24,4.24,0,0,1-4-2.78c7.94,1.4,15.91,2.67,23.82,4.22,12.36,2.41,24.9,3.47,37.37,5,27.67,3.49,55.42,2.61,83.11,1.05,8.89-.5,17.88-2.12,26.78-3.28,10.2-1.33,20.22-3.3,30.32-5A272.54,272.54,0,0,0,701.14,899c8.71-2.65,17.46-5.23,26-8.33,11.15-4,22.42-7.91,33.1-13,11.51-5.49,23.08-10.9,34.26-17.16,13.2-7.39,26.22-15,38.75-23.45,4.08.12,5.94-3.55,8.88-5.34,3.68-2.24,7.58-4.35,10.58-7.52,1.35-1.43,2.7-2.14,4.49-1.59s1.49,2.41,1.24,4.8c7.66-5.33,12.32-.14,17.1,3.71,3.83,3.08,8.23,5.05,12.45,7.37a8.38,8.38,0,0,0,5.41,1c5.05-.75,6.23.15,7.38,5.17,1.43,6.28,2.22,6.76,7.5,3.3,3.43-2.24,4.68-.15,5.84,2.43,2.4-1.23,2.13-3.66,3.24-5.27s2.55-3.61,4.88-2.65a6.91,6.91,0,0,1,4.39,5.13c.35,1.94-1.35,3-2.81,3.19-3.05.49-4.13,2.25-4.41,5a4.91,4.91,0,0,1-2.16,3.51c-3.19,2.19-4.92,5.56-7.12,8.57-10.59,12.26-22.16,23.54-33.81,34.79-14.89,14.38-31,27.19-47.33,39.84a303.73,303.73,0,0,1-29.47,20,6.35,6.35,0,0,0-.65-.62c.2.22.43.41.64.62-12.76,9-26.69,16-40.17,23.67-6.81,3.91-14.29,6.65-21.39,10.07-13.35,6.44-27.15,11.73-41,16.89C687.88,1016.66,678.79,1019.91,669.3,1021.91Z"/><path class="cls-6" d="M3.77,577.33A21.82,21.82,0,0,1,5.63,587.9a3.38,3.38,0,0,1,0,4.51l-.21,3.9c-2.08-11-2.6-22.17-3.68-33.28a443.79,443.79,0,0,1-.65-71.9,516.82,516.82,0,0,1,8.48-65.59c2.32-11.88,5.18-23.65,7.73-35.48a140.25,140.25,0,0,1,5-15.94,127,127,0,0,0,6.61-20.65h0c2.69-3.66,2.6-8.36,4.63-12.26l0,0c2.44-6.64,5.58-13,7.52-19.84.55-1.22,1.1-2.44,1.66-3.65a121.82,121.82,0,0,0,9.59-20.58v0a15.85,15.85,0,0,0,2.81-7.64l4.4-6.51c2.47-2.67,2.75-6.53,5-9.32l0,0c2.24-2.36,4.46-4.73,6.74-7.06A8.37,8.37,0,0,0,74,261c.13-3.87,2.43-6.3,5.78-7.64,3-1.18,6-2,5.6-6.16-.12-1.26,1.34-1.59,2.08-2.34.92-.91,2-1.93.68-3.14-3.72-3.46.07-5.78,1.63-7.73,1.73-2.16,3.9-4.4,7.91-2,5.7,3.36,5,2.18,1.09,8.06-2.86,4.33-4.2,10-6.6,14.94-.88,1.82,1.73,3.95,4.4,2.26,2.84-1.8,5.12-.4,5.27,2,.33,5.2,4.26,5.23,7.51,6.09,8.71,2.31,18,2.68,26,7.52,1.08.65,2.64,1.07,2.85,2.19,1.31,6.86,7,6.62,11.82,7.12,4.06.41,7.91-.18,9.76,5,.73,2,4,3.31,6.39,3.34,3.65,0,5.26,4.59,9.22,3.53.69-.19.78,1.15.44,1.88-.53,1.1-1.68,1.92-1.41,3.35,0,.23,0,.45,0,.68-6.06,8.08-10.32,17.22-15.23,26-3.29,5.87-6.87,11.71-8.61,18.36-3.78,6.36-5.9,13.5-9.36,20-5,9.53-8.24,19.71-11.58,29.87-1.41,4.27-2.47,8.64-3.85,12.92-.11.45-.26.89-.41,1.33-.82,3.79-2.67,7.34-2.67,11.33a7.58,7.58,0,0,1-.47,1.39c-2,5.21-2.73,10.68-3.9,16.08-1.26,5.85-3,11.58-3.36,17.62a4.53,4.53,0,0,1-2.54,3.69c-3.52-3.22-4-3.08-5.6,1.39-1.39,3.91-1.07,8-1,12,.16,6.92-.81,13.76-1.14,20.64a6.84,6.84,0,0,1-1.09,0c-1.16-6.27-5.64-10.59-9-15.6-1-1.59-2.18-1.34-3.5-1.54-4-.6-7.93.13-11.92-.55-6.54-1.12-10.7-5-13.71-10.55-1.07-1.94-2.18-2.6-4.71-2.65a47.75,47.75,0,0,1-13-2.31,6.7,6.7,0,0,1-4.7-5.39c-.34-2.56-1.45-2.4-3.53-1.74-6.32,2-9.36.68-12.71-5.2a2.72,2.72,0,0,0-2.65-1.55c-2.17.12-3-1.21-3.58-3-.3-1-.35-2.45-1.94-1.92A2.66,2.66,0,0,0,16.87,443c0,.91.4,1.81.49,2.72.15,1.5-.35,3.12-1.67,3.52-1.8.54-1.48-1.47-2-2.46A13.27,13.27,0,0,1,12,441a2,2,0,0,0-2.13-2c-1.25,0-1.49,1-1.44,2,.39,8.4-2.35,16.46-3.4,24.65-1.23,9.61.2,19.24-1.53,28.55-3,16.31-.92,32.64-1.65,48.93-.23,5,2.4,9.64,1.86,14.68C5.33,564.3,5,570.82,3.77,577.33Z"/><path class="cls-7" d="M910.15,868c-.31-2.7,1.87-4.4,3.23-5.91,2.8-3.1,6.15-5.38,5.52-10.44-.24-2,2.44-1.13,3.82-1.49s3.46-.74,3-2.19c-.51-1.75-2.1-3.34-3.57-4.6-1.29-1.12-2.16.46-3.07,1.21-2.16,1.77-.91,5.18-3.38,6.89-.88.61-1.48,1.8-2.71,1.31s-.2-1.61-.34-2.42c-.49-2.92-1.76-3.41-3.88-1.13-1.65,1.78-3.73,3.08-6.17,2.26-2.68-.89-2.59-3.45-2.85-5.84-.56-5.26-1.51-5.61-6.59-4.51-3,.65-5.62-1.33-8.14-2.66a82.52,82.52,0,0,1-15.67-10.63,6.32,6.32,0,0,0-8.15-.54c-1.23.79-2.72,2-4.28.81-2.08-1.6.31-2.16.89-3.16a1,1,0,0,0-.55-1.52c-1-.49-2.25-.7-3,.32-4.15,5.75-11.75,7-16.12,12.51-1.18,1.47-3.23.74-4.91.82,6.25-4.49,12.45-9,18.75-13.45,12.85-9,24.71-19.22,36.4-29.6,9.85-8.75,19.69-17.56,28.57-27.37,7.6-8.39,15.75-16.28,23.28-24.73,9-10.07,17.33-20.69,25.78-31.21,8.26-10.29,15.56-21.24,23.62-31.65,4.15-5.35,13.58-7.9,19-4.89,9.39,5.21,12.49,11.58,9.68,20.28-5,15.63-11.71,30.62-19,45.4a533,533,0,0,1-70,106.09C923.06,853.34,917,861,910.15,868Z"/><path class="cls-8" d="M639.25,15.15c-6.8.44-13-2.55-19.59-3.44C608.24,10.17,597,7.16,585.55,5.79c-14.12-1.68-28.3-2.62-42.47-3.51-15.79-1-31.58-1.5-47.42.36-10.17,1.19-20.51.92-30.77,1.31,1.35-1.59,3.28-1.67,5.09-1.82A642.15,642.15,0,0,1,544.16.37c14.23.49,28.37,2.74,42.55,4.16,15.48,1.54,30.39,5.77,45.68,8C634.76,12.91,637.3,13.41,639.25,15.15Z"/><path class="cls-1" d="M836.11,670.34c1.42-2.81,4.3-4,6.64-5.67,7.71-5.64,16-10.56,23.23-16.76,4.21-3.62,10.29-5.76,11.95-12.09.17-.67,1.37-1.21,2.2-1.57,6.14-2.61,9.8-8,13.84-12.78,2-2.36,3.76-3.91,6.85-3.66a276.52,276.52,0,0,1-27,25.42c-4.73,3.93-9.42,8-14.39,11.53C851.81,660.18,844.61,666.25,836.11,670.34Z"/><path class="cls-9" d="M176.2,133.32c-3.42,5.93-9.17,9.6-14,14.07-2.63,2.43-5,5-7.48,7.56-7.88,8-15.79,15.87-23.23,24.24-.82.92-1.69,1.87-3.1,1.88a306.23,306.23,0,0,1,38.71-40.17C170,138.31,172,134.41,176.2,133.32Z"/><path class="cls-1" d="M470.58,504.48a4.92,4.92,0,0,1,1.79-4.16c6-4.43,10.54-10.49,16.47-15,4.53-3.46,7.74-8.26,12.34-11.78,2.26-1.73,3.39-6,2.13-10.08,1.94,3,3.83,5.42,7.59,3.52-5.1,6.25-12.06,10.45-17.74,16.08C485.79,490.36,478.12,497.35,470.58,504.48Z"/><path class="cls-1" d="M706.74,726.62c2.54-3.66,7-3,10.46-4,5.56-1.58,10.92-3.62,16.39-5.38,1.26-.4,2.76,0,4.16,0-8.83,4.41-18.66,5.87-27.82,9.32A9.65,9.65,0,0,1,706.74,726.62Z"/><path class="cls-1" d="M433.07,542.94c1.22-4,4.71-6.05,7.28-8.88q5.91-6.51,12-12.87c1.14-1.2,2.12-2.76,4.11-2.75a216.88,216.88,0,0,1-17.92,19.19C436.67,539.38,436.15,542.51,433.07,542.94Z"/><path class="cls-1" d="M728.24,605.47c-4.93,7.58-13.23,11-20.1,16.17-1.49,1.12-3,2.76-5.24,2.63,5.75-5.82,13.26-9.32,19.45-14.6C724.11,608.17,725.48,605.71,728.24,605.47Z"/><path class="cls-1" d="M785.49,698.41c2.19-4.18,7.1-3.77,10.41-6.12,4.25-3,9.41-4.47,13.63-7.62.73-.54,2.09-.24,3.16-.32A155.3,155.3,0,0,1,785.49,698.41Z"/><path class="cls-6" d="M8.45,609.25c-.38,4,2.82,7.38,1.92,11.46-.07.94-.15,1.89-.22,2.83-3-8.84-2.88-18.23-4.72-27.28,1.57.3,1.73,2.08,2.91,2.78C9.93,602.43,10.56,605.83,8.45,609.25Z"/><path class="cls-1" d="M52.3,297.19c1.31,2.11,1.14,3.57-.87,5.57-3.06,3-3.92,7.53-5.51,11.48-.69,1.7-1.34,3.06-3.21,3.53C45.42,310.68,48.18,303.62,52.3,297.19Z"/><path class="cls-1" d="M395.55,585.06c-.41-3.68,3.18-4.78,4.94-6.76,3.73-4.17,6.14-9.78,11.81-12.06A149.61,149.61,0,0,1,395.55,585.06Z"/><path class="cls-1" d="M748.78,589.36c.25,3.33-3.23,3.41-4.8,5-3.91,4-8.62,7.28-13.11,10.72-.62.48-1.77.28-2.67.4,5.19-5,11.6-8.6,16.57-13.92C745.76,590.53,747.43,590.09,748.78,589.36Z"/><path class="cls-1" d="M28.94,353.47c-.81,7.33-2.14,14.49-6.61,20.65A109.9,109.9,0,0,1,28.94,353.47Z"/><path class="cls-1" d="M41.05,321.42c.78,2.82-.47,5.27-1.88,7.42-2.55,3.87-1.73,9.22-5.64,12.42C34.8,334.18,38.1,327.86,41.05,321.42Z"/><path class="cls-1" d="M750.8,712.54c3.32-3.79,7.74-4.61,12.46-4.65C759.17,709.6,755.44,712.29,750.8,712.54Z"/><path class="cls-1" d="M812.68,684.35c2.68-3.34,5.79-5.87,10.41-5.56C819.7,680.78,816.57,683.29,812.68,684.35Z"/><path class="cls-1" d="M33.56,341.22c-1.13,4.24-.6,9.11-4.63,12.26C30.31,349.33,30.52,344.74,33.56,341.22Z"/><path class="cls-1" d="M461.12,513.68c1.63-4.64,5.07-7.42,9.47-9.22C467.71,507.82,465,511.32,461.12,513.68Z"/><path class="cls-1" d="M823.07,678.8c1.61-5.16,6.47-5.13,10.43-6.55C830.77,675.62,826.28,676.2,823.07,678.8Z"/><path class="cls-1" d="M426.43,551.09c0-4.58,2.76-6.84,6.68-8.18Q429.77,547,426.43,551.09Z"/><path class="cls-1" d="M774.28,703.17c2.35-4.21,6.56-4.2,10.56-4.65C781.52,700.52,778.14,702.39,774.28,703.17Z"/><path class="cls-1" d="M64.52,273.75c-1.39,3.26-1.14,7.39-5,9.32C60.27,279.48,61.62,276.2,64.52,273.75Z"/><path class="cls-1" d="M763.93,707.81c2.5-3.7,6.45-4.16,10.38-4.66C770.93,704.87,767.79,707.14,763.93,707.81Z"/><path class="cls-1" d="M737.71,717.22c2.3-2.35,5.24-2.85,8.34-2.91C743.56,716.11,741,717.83,737.71,717.22Z"/><path class="cls-1" d="M702.94,624.24a9,9,0,0,1-7.5,4.77C697.86,627.3,699.57,624.47,702.94,624.24Z"/><path class="cls-1" d="M418.93,558.64c1.36-2.9,2.19-6.31,6.34-6.49C422.87,554,422,557.4,418.93,558.64Z"/><path class="cls-1" d="M759.15,580.19c-1.81,3.07-4,5.7-7.7,6.53C753.72,584.19,755.92,581.59,759.15,580.19Z"/><path class="cls-1" d="M55.11,289.58a7.29,7.29,0,0,1-2.81,7.64C53.23,294.67,54.17,292.13,55.11,289.58Z"/><path class="cls-10" d="M576.44,113.55c-11.84.42-23.46-2.2-35.26-2.5-13.07-.34-26.14-.93-39.18.32-7.28.7-14.67-.5-21.85,1.26-5.08,1.25-10.18,1-15.31.89,4.77-3,10.29-2,15.42-2.55a400,400,0,0,1,66.65-1.72c8.75.52,17.57,1.65,26.35,2.56A4.24,4.24,0,0,1,576.44,113.55Z"/><path class="cls-1" d="M121.85,420.07c-1.35,6.8-2.14,13.78-4.19,20.38-2.44,7.82-2.83,15.92-4.08,23.86a346,346,0,0,0-4,54.41c0,7.24,1.54,14.21,3,21.21a4.42,4.42,0,0,1-2.75-3.35c-2.62-10.94-2-22.05-2.06-33.13,0-1.25,0-2.5,0-3.75.2-2.29-.16-4.74,1.78-6.57.4-7.34-.89-14.88,1.46-22,1.41-4.26,1.36-8.42,1.41-12.69,1.57-7.78,2.65-15.7,4.88-23.28C118.73,430.15,118,424.37,121.85,420.07Z"/><path class="cls-2" d="M53.28,641.45c-6.37,4.24-13.23.81-19.83,1.63a1.48,1.48,0,0,1-.47,0c-2.91-.55-7-1.12-6.93-4.22.11-3.42,4.12-3.39,7.17-3.28a71.4,71.4,0,0,0,7.46,0c3.07-.2,6-1.07,7.31,3.33C48.5,640.71,51.18,641.06,53.28,641.45Z"/><path class="cls-1" d="M436.5,430.34c1.63.37,4.27-1,5.09,1.62s-1.61,3.35-3.52,4.5a26.12,26.12,0,0,0-5.44,5.08c-2.55,2.84-3.91,1.51-4.89-1.24C425.89,435.12,430,430.34,436.5,430.34Z"/><path class="cls-2" d="M81.69,650.83c-2.9.75-4.23,1.83-5.41,3.82-1.9,3.19-5.7,1.17-8.65,1.49-2.14.24-3.06-1.25-3.09-3.23,0-2.25-3.43-3.86-2.1-5.73,1.52-2.15,3.72,1.17,5.93.67A10.35,10.35,0,0,1,73,648C75.62,648.64,78.16,649.65,81.69,650.83Z"/><path class="cls-2" d="M149.74,693.69c-2.33,0-4.66.12-7,0-3.2-.22-4.1-2.39-3.78-5.18.36-3.05,2.44-3.71,5-3.07a6.73,6.73,0,0,1,3.27,1.64c2.34,2.55,4.77,3.62,8.23,2.19,2.32-1,2.95,1.08,3.23,2.8.35,2.1-1.41,1.58-2.49,1.63C154.09,693.76,151.91,693.7,149.74,693.69Z"/><path class="cls-11" d="M171.68,597.84c6.26,1.87,12.76,2.41,19.2,2.7,11.91.55,23.81.58,35-4.68,2.59-1.22,5.56-1.64,8.36-2.42-2.29,3.91-7,2.71-10.2,4.76-4.29,2.73-9.34,2.89-14.2,3.59a46.08,46.08,0,0,1-25.27,0c-4-2.23-9.3,1.21-12.95-2.79l-.46-.57Z"/><path class="cls-1" d="M412.82,434.09c-2.85.23-4-.95-2.68-3.89,1.21-2.78,2.54-5.82,6.22-5.15,2,.38,3.14.48,4-1.6a1.66,1.66,0,0,1,2.4-.73,2.32,2.32,0,0,1,.8,2.52C423.21,427.58,415.42,434.1,412.82,434.09Z"/><path class="cls-2" d="M184.5,708.75c-2.24-1.36-6.9.85-7.4-4.4-.25-2.59.71-4,3.61-4.15,3.89-.24,6.22,2.36,8.92,4.29a2.06,2.06,0,0,1,.27,2.6C188.84,709.26,186.75,708.54,184.5,708.75Z"/><path class="cls-1" d="M480.2,453.86c1.44-.07,2.28.33,2.63,1.3.79,2.22,1.69,4.11,4.35,4.85,1.31.36,1.1,1.9.63,3.21-1.07,3-4,3.43-6.35,3.89-1.59.31-3.51-2.09-1.86-3.4,3-2.41,1.22-3.69-.23-5.54-.69-.9-1.68-2.06-.73-3.33A4.46,4.46,0,0,1,480.2,453.86Z"/><path class="cls-11" d="M135,577.42c5.34,2.1,9.15,6.51,14.09,9.3,6,3.4,11.65,7.4,18.63,8.81,1.43.28,2.68,1.51,4,2.31l-.37.43c-2.91,1.06-5.08-.62-7.34-2-5-.35-8.48-4.09-12.72-6.09-4.91-2.31-9.28-5.82-13.73-9C136.36,580.34,135.79,578.69,135,577.42Z"/><path class="cls-1" d="M350.44,473.42c7.85-10.22,17-19.27,26.22-28.2-.06,3.43-3.07,5.12-5,7-6.84,6.63-12.77,14.07-19.51,20.75C351.81,473.31,351,473.27,350.44,473.42Z"/><path class="cls-1" d="M381.38,440.6a117.15,117.15,0,0,1,18.78-18.73,3.68,3.68,0,0,1-2.11,4.24c-4.89,2.09-6.86,7.28-11.07,10.07-1.18.78-.63,1.88-.27,2.91.47,1.38.69,2.89-.77,3.73-1.65.95-1.77-1.26-2.81-1.66C382.56,440.94,382,440.78,381.38,440.6Z"/><path class="cls-2" d="M107.85,669.32c-1.73-.11-4.27.49-5.55-2.15a1.86,1.86,0,0,1,.76-2.42c2.15-1.47,4.32-1.27,6.53-.11a13.94,13.94,0,0,0,2.12.88c1.05.33,2.25.62,2.16,2-.12,1.6-1.48,1.76-2.75,1.82C110.2,669.35,109.28,669.32,107.85,669.32Z"/><path class="cls-11" d="M234.28,593.43c1.06-3.51,4.79-3,7.14-4.55,8.87-5.89,15.89-13.79,23.68-20.85-1.86,5.55-7.06,8.38-10.59,12.54-3,3.51-7.57,5.59-11.3,8.5C240.51,591.17,237.37,592.22,234.28,593.43Z"/><path class="cls-2" d="M135.54,679.34c-5.09.68-9.34.91-12.18-3.53-.64-1-3-1.45-1.32-3.09,1.15-1.1,3.44-1.15,4.26.12C128.39,676.12,132,676.88,135.54,679.34Z"/><path class="cls-2" d="M3.77,577.33q-.06-9.76-.11-19.53c1.77-.74,1.79.7,1.81,1.65.07,5.12,0,10.23,0,15.35A2.57,2.57,0,0,1,3.77,577.33Z"/><path class="cls-6" d="M184.6,601.74a71.28,71.28,0,0,0,25.27,0c-.13,1.61-1.19,1.94-2.58,1.94q-9.69,0-19.4,0A3.09,3.09,0,0,1,184.6,601.74Z"/><path class="cls-1" d="M477.66,446.24a3.1,3.1,0,0,1-3.42,1.71c-1.78-.33-3.45-1.47-3.28-3.3s2.19-1.12,3.42-1.11A3.31,3.31,0,0,1,477.66,446.24Z"/><path class="cls-2" d="M8.45,609.25c0-3.4-.07-6.8-.11-10.21C12.26,602.4,12.31,607.06,8.45,609.25Z"/><path class="cls-1" d="M495.7,474.05a3.73,3.73,0,0,1-3.06,3c-1.75.34-3.63-.55-3.67-2-.08-3.16,2.84-.91,4.22-1.74C494,472.81,495.29,472.19,495.7,474.05Z"/><path class="cls-6" d="M112.44,539.93l4.75,13.15C112.89,549.68,112.16,545,112.44,539.93Z"/><path class="cls-2" d="M218.94,710.12c.09,1.64-1,2.2-2.31,2.26-1.15.06-2.77.4-2.77-1.48a3.08,3.08,0,0,1,2.57-2.91C218.09,707.56,218.42,709,218.94,710.12Z"/><path class="cls-1" d="M470.15,485.64c-1.09,0-2.76-.05-2.66-1.23.19-2.2,2.6-1.72,4.06-2.27,1.05-.4,1.7.5,1.66,1.61C473.15,485.9,471.5,485.54,470.15,485.64Z"/><path class="cls-1" d="M403.86,442.47c0,1.37-.79,1.93-2.06,1.85s-2.39-.82-2.38-2.26a2,2,0,0,1,2.38-2.16C403.26,440,403.82,441.1,403.86,442.47Z"/><path class="cls-2" d="M5.68,592.41c0-1.51,0-3,0-4.51,1.73-.1,2.39,1.1,3,2.4s1.19,2.59.12,3.42C7.47,594.72,6.72,592.88,5.68,592.41Z"/><path class="cls-2" d="M25.13,610.67c-.22,1.24-.72,2.33-2,2-1.73-.4-1.63-2-1.6-3.37,0-1,.34-2.26,1.27-2.12C24.55,607.48,24.64,609.34,25.13,610.67Z"/><path class="cls-2" d="M208.46,712.44c-2.37,1.24-4.52,1.41-6.2-.74a1,1,0,0,1,.34-1.55C205.32,708.77,206.36,712,208.46,712.44Z"/><path class="cls-6" d="M109.49,493.13a13.06,13.06,0,0,1-1.78,6.57C104.8,495.14,105.05,494.22,109.49,493.13Z"/><path class="cls-2" d="M266.22,717.19c-1.8-.34-4.36.59-4.58-2.49a1.64,1.64,0,0,1,1.88-1.63c2.38.29,2.59,2.23,2.68,4.14Z"/><path class="cls-2" d="M277.4,707.77c-.31,0-.62,0-.92,0-1.58.12-3.43,1.19-4.46-.91-.51-1,.28-1.87,1.24-2.06,2.35-.46,3.79.56,4.13,3Z"/><path class="cls-2" d="M257.39,706a2.21,2.21,0,0,1-2.42,1.67c-1,0-1.89-.35-1.76-1.54a2,2,0,0,1,2.53-1.95A1.74,1.74,0,0,1,257.39,706Z"/><path class="cls-6" d="M117.15,553a18.92,18.92,0,0,1,4.67,8.55C119.62,559.07,116.77,556.93,117.15,553Z"/><path class="cls-2" d="M20.51,599.44c-.07.89,0,2.13-1.25,2s-1.53-1.35-1.5-2.51c0-1,.35-2.11,1.4-2C20.45,597,20.49,598.34,20.51,599.44Z"/><path class="cls-1" d="M402,470.74c0,1.1-.57,1.74-1.7,1.6-.79-.1-1.49-.56-1.38-1.45s.48-1.82,1.58-1.91S402,469.75,402,470.74Z"/><path class="cls-6" d="M164,596.3c2.74-.44,4.53,2.65,7.34,2a5.39,5.39,0,0,1,.34.68C168.85,598.75,165.41,600.42,164,596.3Z"/><path class="cls-1" d="M495.11,454.82c.83,0,1.67.16,1.88,1,.32,1.28-.74,1.55-1.65,1.61a1.46,1.46,0,0,1-1.72-1.19C493.55,455.33,494.3,455,495.11,454.82Z"/><path class="cls-6" d="M123.64,563.58c1.55,2.17,4,3.66,4.76,6.42C126.17,568.34,123.57,567,123.64,563.58Z"/><path class="cls-2" d="M288.05,692.64a1.49,1.49,0,0,1,1.47-1.41,1.46,1.46,0,0,1,1.58,1.7c0,.43-.75,1.15-1.12,1.13C289.15,694,288.18,693.78,288.05,692.64Z"/><path class="cls-1" d="M400.15,421.88a13.28,13.28,0,0,1,4.69-4.7C405,420.48,402.6,421.2,400.15,421.88Z"/><path class="cls-1" d="M376.64,445.24a13.23,13.23,0,0,1,4.75-4.65C381.55,443.92,379.23,444.72,376.64,445.24Z"/><path class="cls-2" d="M260.65,721.93c-1.14-.48-2.88.6-3.44-1.23-.09-.3.59-1.18,1-1.25,1.89-.34,2.1,1.16,2.4,2.49Z"/><path class="cls-1" d="M898.27,607.16c-1.19,1.28,1.24,4.57-2,4.67-2.12.06-2.75-2.36-2.85-4.22-.13-2.47,2.22-2.33,3.69-2.68C898.86,604.5,898.6,605.87,898.27,607.16Z"/><path class="cls-1" d="M780.7,578.91c-.22,1.37-1,2.28-2.4,2.17a2.21,2.21,0,1,1,0-4.38C779.78,576.62,780.5,577.53,780.7,578.91Z"/><path class="cls-1" d="M876.71,623c-1.77.59-3.4.86-4.49-1a1.24,1.24,0,0,1,.47-1.11C874.61,620.32,876,621,876.71,623Z"/><path class="cls-2" d="M736.1,986.1c-2,0-2.77,0-3.54,0s-1.73.1-1.86-.93a1.54,1.54,0,0,1,1.73-1.72c3.16.06,4.62-1.31,4.36-4.51-.09-1,.48-2.32,1.4-2,3.36,1.25,5.78-.55,8.47-1.93.88-.45,2.76.34,1.56,1.62a119,119,0,0,1-10.13,9.3A2.61,2.61,0,0,1,736.1,986.1Z"/><path class="cls-2" d="M748.93,988c-.59-4.14.9-6.29,5.36-5.63,2.08.3,3.5-.81,4.85-2.21,2.22-2.3,4.24-2,6.42.84-6.24,1.34-9.84,7.77-16.64,7Z"/><path class="cls-2" d="M649.69,936.44c-2.28-.08-4.79.48-6.37-1.83a1.94,1.94,0,0,1,.4-2.56c1.91-1.72,4-1.18,6.12-.42a4.29,4.29,0,0,0,1.39.11c1.77,0,3.8.06,3.73,2.42s-2.12,2.26-3.87,2.28Z"/><path class="cls-2" d="M659.33,915.05c-4.78-1.49-10.13,4.05-15.29-1.61C649.71,912.72,654.62,912.56,659.33,915.05Z"/><path class="cls-2" d="M634.21,926.25c.75.09,3.11.28,3.62,2.53.41,1.78-1.76,2.5-2.85,1.84-2.09-1.28-5.67.78-6.34-2.11C628.25,926.77,630.92,926,634.21,926.25Z"/><path class="cls-2" d="M676.28,909.27c-2.35,2.84-4.3,1.56-6.86-.37C672.05,908.14,674,907.91,676.28,909.27Z"/><path class="cls-2" d="M748.92,988c0,1.23.06,2.59-1.68,2.72-1.19.09-2.86.42-3.14-1.05-.34-1.74,1.37-1.57,2.53-1.65.76,0,1.53,0,2.3,0Z"/><path class="cls-2" d="M790.83,965.56a1.29,1.29,0,0,1-1.26,1.67c-.76.1-1.59.07-1.89-.84a1.16,1.16,0,0,1,1-1.67C789.6,964.53,790.52,964.55,790.83,965.56Z"/><path class="cls-2" d="M691.17,960.26a1.54,1.54,0,0,1-1.58,1.36c-1,0-2-.26-1.9-1.42,0-.88.94-1.17,1.74-1.16A1.68,1.68,0,0,1,691.17,960.26Z"/><path class="cls-2" d="M799.53,962.67c-1.07-.33-2.65.67-3.17-.92-.27-.85.82-1.25,1.49-1.39,2.1-.44,1.5,1.25,1.69,2.31Z"/><path class="cls-1" d="M174.37,299.18c-.9,4.91-4.57,8.31-6.94,12.39-6.18,10.64-11.59,21.67-17.56,32.41a30.62,30.62,0,0,1,3.83-10.45c4.65-7.68,9-15.58,12.87-23.68C168.55,305.69,171.52,302.55,174.37,299.18Z"/><path class="cls-1" d="M140.58,363.8c-2.38,6.8-4.42,13.75-7.24,20.36-2.74,6.43-4,13.29-6.58,19.74-.57,1.44-.85,3-2.08,4.05a115.42,115.42,0,0,1,7.26-24.56c2.44-5.66,3.48-11.84,6.61-17.23C139.11,365.2,139.47,364.22,140.58,363.8Z"/><path class="cls-1" d="M88.37,261.3c.54,1.84-.43,2.39-1.61,2.11a6.31,6.31,0,0,1-5-4.8c-.54-2.82,2.62-3.22,4.14-3.13C90.08,255.75,86.69,259.86,88.37,261.3Z"/><path class="cls-1" d="M101.26,267.2c-.71,1.61,1.19,4.68-1.78,4.82-2.09.1-2.11-2.61-2.09-4.51,0-2.07.29-5,2.28-5C102.15,262.53,100.69,265.5,101.26,267.2Z"/><path class="cls-1" d="M124.72,407.9c.45,4.4-1.24,8.3-2.89,12.2C121.15,415.65,122.93,411.77,124.72,407.9Z"/><path class="cls-1" d="M82.35,279.49c0,1-.22,2.11-1.3,2.1-1.39,0-1.44-1.35-1.43-2.43,0-.87-.15-2.12,1.13-2.06S82.32,278.35,82.35,279.49Z"/><path class="cls-1" d="M61.59,297.83a1.61,1.61,0,0,1-1.47-1.37c-.22-.8-.09-1.67,1-1.6a1.64,1.64,0,0,1,1.44,1.57C62.63,297.07,62.56,297.67,61.59,297.83Z"/><path class="cls-5" d="M879.73,817.3c1.53-1.64-1.3-6.46,3.18-6,2.07.22,5.38,1.26,6.38,4.24.24.72-6.61,5.54-7.51,5.3C880.17,820.41,878.82,819.67,879.73,817.3Z"/><path class="cls-5" d="M872.83,810.13c1.4-2.37,5.35-2,5-5.75C879.68,808.77,878.13,810.39,872.83,810.13Z"/><path class="cls-5" d="M913,841.67c-.25,1.2.43,3.21-1.62,3.07-1.5-.11-1.2-1.89-1.19-3.07s-.12-3.21,1.76-3.06C913.64,838.74,912.68,840.59,913,841.67Z"/></g></g></svg>