<svg xmlns="http://www.w3.org/2000/svg" width="639.245" height="54.899" viewBox="0 0 639.245 54.899">
    <path id="path" d="M7.477,279.24c15.262-.36,15.913-8.717,31.142-8.82s18.716,10.692,30.388,10.743,23.136-15.41,40.862-16.029,25.871,7.981,45.583,7.894,32.751-12.666,55.2-13.353,27.757,9.542,47.125,9.25,31.077-28.126,64.752-29.5,38.888,18.139,73.179,18.293,18.463,8.683,51.314,9.01S529.7,294.255,529.7,294.255H-15.9Z" transform="translate(109.546 -239.357)" fill="#1d39c6" opacity="0.125"/>
    <path id="path-2" data-name="path" d="M6.892,279.24c14.88-.36,15.515-8.717,30.363-8.82S55.5,281.111,66.883,281.162s22.558-15.41,39.839-16.029,25.224,7.981,44.442,7.894,31.931-12.666,53.818-13.353,27.062,9.542,45.945,9.25,30.3-28.126,63.132-29.5,37.915,18.139,71.348,18.293,18,8.683,50.03,9.01,80.609,27.526,80.609,27.526H-15.9Z" transform="translate(15.896 -239.357)" fill="#1d39c6" opacity="0.119"/>
</svg>
